Coordinates
version=1
nRows=19
nColumns=36
inDegrees=yes

Units are S.I. units (second, meters, Newtons, ...)
If the header above contains a line with 'inDegrees', this indicates whether rotational values are in degrees (yes) or radians (no).

endheader
time	pelvis_tilt	pelvis_list	pelvis_rotation	pelvis_tx	pelvis_ty	pelvis_tz	hip_flexion_r	hip_adduction_r	hip_rotation_r	knee_angle_r	knee_angle_r_beta	ankle_angle_r	subtalar_angle_r	mtp_angle_r	hip_flexion_l	hip_adduction_l	hip_rotation_l	knee_angle_l	knee_angle_l_beta	ankle_angle_l	subtalar_angle_l	mtp_angle_l	lumbar_extension	lumbar_bending	lumbar_rotation	arm_flex_r	arm_add_r	arm_rot_r	elbow_flex_r	pro_sup_r	arm_flex_l	arm_add_l	arm_rot_l	elbow_flex_l	pro_sup_l
      1.05000000	     -3.02507899	      3.59771898	      5.31041902	      1.09783731	      1.02900624	     -0.27008974	     27.09839888	     -4.69456427	    -13.17557939	      0.63460817	      0.01107600	     -4.17601477	     15.14035264	     -7.16522631	     -7.85763121	      7.80484231	     -5.38745772	      0.66433787	      0.01159488	     12.30340884	     10.29988383	     -7.16522631	    -16.34171434	    -12.84748216	     -9.09673252	    -15.61176911	     -3.44712836	    -10.86737580	     45.31100156	    110.37061168	      8.62434074	    -16.44155770	    -20.01826888	     66.11624853	     96.78581041
      1.06000000	     -2.90046097	      4.04929338	      5.04133315	      1.11037500	      1.02611226	     -0.27095511	     27.29543499	     -5.03910745	    -13.99273161	      0.42253534	      0.00737463	     -2.49411540	     17.63328550	     -7.17480829	     -8.74297688	      8.29411013	     -4.86013740	      0.86332888	      0.01506793	     12.80672750	      9.57218290	     -7.17480829	    -16.17604088	    -12.97887876	     -9.09794193	    -15.54044279	     -3.40264275	    -11.06316930	     45.11941742	    110.43740215	      9.22981123	    -17.29118444	    -19.39964193	     66.20779041	     97.00462434
      1.07000000	     -2.73343672	      4.43122254	      4.75695569	      1.12299162	      1.02345904	     -0.27150373	     27.31836614	     -5.23438494	    -13.97977092	      0.33812728	      0.00590143	     -1.25449444	     18.48217421	     -7.17777079	     -9.57623423	      8.67628287	     -4.57388461	      1.22179599	      0.02132436	     13.47171526	      9.14375188	     -7.17777079	    -16.06473069	    -13.08442477	     -9.20480388	    -15.35749920	     -3.36272724	    -11.10620523	     44.96557930	    110.41889877	      9.69184854	    -18.07439631	    -19.15632300	     66.37792745	     97.08473738
      1.08000000	     -2.40836255	      4.50668266	      4.66410504	      1.13602598	      1.02139425	     -0.27212980	     26.98997354	     -5.20970678	    -14.70534498	      0.33814881	      0.00590181	     -0.07740794	     19.99902242	     -7.18648434	    -10.53547693	      8.67093509	     -4.10463191	      1.64831452	      0.02876852	     13.80126502	      8.54588857	     -7.18648434	    -16.12520296	    -12.82742325	     -9.26963089	    -15.22510922	     -3.37244018	    -11.13334000	     44.69592391	    110.49682161	     10.16456972	    -18.87601922	    -18.46430502	     66.40495039	     97.33412237
      1.09000000	     -2.08410093	      4.50494789	      4.52362289	      1.14918309	      1.01961155	     -0.27238491	     26.50913954	     -4.99911161	    -14.47743869	      0.36300331	      0.00633560	      0.35981419	     19.66359873	     -7.19125719	    -11.37265380	      8.55135948	     -4.05513847	      2.29200799	      0.04000309	     14.30456570	      8.26975306	     -7.19125719	    -16.17137358	    -12.55149795	     -9.38995731	    -15.03981458	     -3.34385588	    -11.18435796	     44.53581390	    110.49030382	     10.45148575	    -19.59876278	    -18.22572515	     66.50277324	     97.46833503
      1.10000000	     -1.82022628	      4.37483166	      4.47357878	      1.16253916	      1.01814228	     -0.27270439	     25.95758010	     -4.70331966	    -14.09529381	      0.43429911	      0.00757995	      0.19612023	     19.22987700	     -7.19316227	    -12.08580213	      8.26108975	     -4.00726227	      3.04540582	      0.05315236	     14.49224427	      8.13536469	     -7.19316227	    -16.15051679	    -12.12998482	     -9.55504490	    -14.87677264	     -3.35290181	    -11.22240645	     44.43272427	    110.45306777	     10.63238463	    -20.17502613	    -18.10800643	     66.54688013	     97.51955406
      1.11000000	     -1.39828832	      4.09560892	      4.26649264	      1.17623086	      1.01710844	     -0.27239828	     25.15529148	     -4.06187379	    -13.00767925	      0.50245554	      0.00876950	     -0.98522690	     16.43403794	     -7.20227191	    -12.88665412	      7.75575374	     -4.77202053	      3.91981873	      0.06841374	     15.10953361	      8.90135131	     -7.20227191	    -16.25174461	    -11.65749974	     -9.47120966	    -14.68849909	     -3.34632205	    -11.19502379	     44.21735594	    110.46930576	     10.68098126	    -20.80552743	    -17.76603453	     66.72678967	     97.83396978
      1.12000000	     -1.07198536	      3.72982125	      4.25018119	      1.19020870	      1.01646028	     -0.27234332	     24.38927805	     -3.48611328	    -12.72314006	      0.65841289	      0.01149147	     -2.15473359	     15.48734710	     -7.20518711	    -13.53084732	      7.13546013	     -5.12316915	      4.91514736	      0.08578550	     15.11302711	      8.82795925	     -7.20518711	    -16.25129940	    -11.05578723	     -9.59884795	    -14.52530848	     -3.34099516	    -11.27169147	     44.12456736	    110.41017951	     10.58016985	    -21.30276313	    -17.68873821	     66.71638830	     97.90842127
      1.13000000	     -0.72267641	      3.29272834	      4.18257365	      1.20450857	      1.01617091	     -0.27192434	     23.54667792	     -2.76106925	    -12.26779905	      0.77006327	      0.01344014	     -4.13096570	     13.58964862	     -7.20935534	    -14.13562619	      6.39774837	     -5.79234945	      6.01486410	      0.10497918	     15.05720000	      9.13001578	     -7.20935534	    -16.25441893	    -10.44667022	     -9.60128119	    -14.38738416	     -3.31034604	    -11.33934443	     43.98482267	    110.31744744	     10.31896147	    -21.73321068	    -17.62858379	     66.85286791	     98.02464591
      1.14000000	     -0.66075936	      2.84468981	      4.03263598	      1.21894086	      1.01577246	     -0.27104491	     22.92322690	     -1.94717498	    -10.75315856	      0.82067650	      0.01432351	     -6.15944097	     10.84196571	     -7.22598803	    -14.26015256	      5.58188647	     -7.02114743	      7.45026818	      0.13003171	     15.38864683	     10.85400903	     -7.22598803	    -15.92165628	     -9.93583331	     -9.49831905	    -14.28967245	     -3.29437400	    -11.25403180	     43.81400050	    110.30952182	      9.90986863	    -22.00790730	    -17.90705026	     67.02587005	     98.52429934
      1.15000000	     -0.49606779	      2.40761804	      4.09110328	      1.23386111	      1.01600045	     -0.27039206	     22.12344587	     -1.27612625	    -10.38100165	      0.86822849	      0.01515345	     -7.83891289	      9.65425450	     -7.23653103	    -14.54257229	      4.79366281	     -7.34744589	      8.80390987	      0.15365721	     14.87853330	     10.90877734	     -7.23653103	    -15.68695783	     -9.40775351	     -9.55801115	    -14.22514271	     -3.22541496	    -11.31698798	     43.62664756	    110.23072567	      9.38407185	    -22.24548053	    -18.06017616	     67.08894653	     98.77135977
      1.16000000	     -0.36320435	      1.95602694	      4.25277708	      1.24903075	      1.01658788	     -0.26971146	     21.30272079	     -0.66020537	    -10.34114922	      0.92121978	      0.01607832	     -9.04901180	      9.31451479	     -7.23982647	    -14.65977663	      3.96824138	     -7.49799676	     10.35990497	      0.18081445	     14.03848874	     10.48406275	     -7.23982647	    -15.41961017	     -8.87215777	     -9.59799090	    -14.22632909	     -3.13807849	    -11.39778397	     43.44617935	    110.12829839	      8.86587184	    -22.42116115	    -18.07234168	     67.02422689	     98.80653821
      1.17000000	     -0.36664704	      1.50019308	      4.40395736	      1.26437332	      1.01730213	     -0.26874696	     20.54401874	     -0.00508468	     -9.83835079	      0.86692365	      0.01513067	    -10.49800274	      8.07501846	     -7.24804256	    -14.46749783	      3.12746441	     -7.62301864	     12.19848361	      0.21290370	     13.20562722	     10.07882219	     -7.24804256	    -14.98890893	     -8.40666061	     -9.68838623	    -14.13962043	     -3.02938524	    -11.44491731	     43.07018599	    110.03923620	      8.09386564	    -22.50493873	    -18.39206374	     67.14556844	     98.95091154
      1.18000000	     -0.37021851	      1.04553265	      4.61334704	      1.27992954	      1.01833984	     -0.26769465	     19.75333123	      0.60317354	     -9.57735527	      0.86789385	      0.01514761	    -11.34553572	      7.40422379	     -7.25625860	    -14.10815340	      2.27726857	     -7.59167795	     14.29153181	      0.24943429	     12.03952807	      9.20015833	     -7.25625860	    -14.55291950	     -7.95642536	     -9.75582723	    -14.10097691	     -2.91743333	    -11.43755755	     42.69840344	    109.93485243	      7.30523036	    -22.51513373	    -18.63000328	     67.14078076	     99.05219994
      1.19000000	     -0.36176064	      0.56116493	      4.80902397	      1.29561678	      1.01962724	     -0.26652228	     18.92971553	      1.23646605	     -9.39562729	      0.89711858	      0.01565767	    -11.85978176	      6.86984956	     -7.26193849	    -13.56743672	      1.39419600	     -7.52080637	     16.68290037	      0.29117154	     10.65893394	      8.03804926	     -7.26193849	    -14.12013533	     -7.50875236	     -9.69641454	    -14.08721369	     -2.79126675	    -11.49560445	     42.34235125	    109.80431150	      6.53146320	    -22.44744690	    -18.78194523	     67.07325084	     99.08163674
      1.20000000	     -0.15434508	      0.12358742	      5.03821356	      1.31126734	      1.02137213	     -0.26529836	     17.84841235	      1.81402089	     -9.18281802	      0.96458891	      0.01683525	    -11.78126532	      6.65001784	     -7.26382629	    -13.05032419	      0.52532407	     -7.25450459	     19.34425530	      0.33762095	      9.07961735	      7.21469966	     -7.26382629	    -13.95749294	     -7.12418757	     -9.49266831	    -14.14010516	     -2.65916880	    -11.53347711	     42.09523477	    109.66483154	      5.97405080	    -22.27813488	    -18.81024158	     66.95768505	     99.04004869
      1.21000000	     -0.44550983	     -0.42420772	      5.08665720	      1.32668225	      1.02257263	     -0.26372073	     17.37203422	      2.55720804	     -8.62004463	      1.06495169	      0.01858691	    -12.16028331	      5.20914933	     -7.27123042	    -11.64122326	     -0.37409555	     -7.23756918	     22.56798547	      0.39388565	      7.01992273	      4.73158297	     -7.27123042	    -13.19241989	     -6.71386302	     -9.33481531	    -13.95925654	     -2.53564623	    -11.64825509	     41.55142925	    109.46612108	      4.95168497	    -22.08188845	    -19.19065312	     66.92909131	     99.04589542
      1.22000000	     -0.22645339	     -1.05083159	      5.12090386	      1.34216996	      1.02444583	     -0.26210368	     16.31329175	      3.40754825	     -8.39209478	      1.20359240	      0.02100665	    -11.63157881	      4.78563438	     -7.27424677	    -10.62338952	     -1.48442518	     -7.36010582	     25.98428588	      0.45351134	      4.90104908	      3.33896260	     -7.27424677	    -13.03163456	     -6.18296018	     -8.88659338	    -13.87947942	     -2.47455752	    -11.66475185	     41.27247171	    109.29343982	      4.24519508	    -21.79513219	    -19.25222680	     66.80172514	     98.99665872
      1.23000000	     -0.36857157	     -1.55241196	      5.07024666	      1.35688245	      1.02589498	     -0.26043687	     15.72083465	      4.11625412	     -7.65873537	      1.44641815	      0.02524476	    -11.38182331	      3.72645299	     -7.28147416	     -8.91622318	     -2.33044226	     -7.12065275	     29.77395009	      0.51965346	      2.10459307	      0.74587703	     -7.28147416	    -12.56495213	     -5.85963560	     -8.43442805	    -13.65947561	     -2.40188706	    -11.65548745	     40.87497307	    109.09733607	      3.49309765	    -21.43256563	    -19.53429221	     66.74725025	     98.98795009
